<svg id="Layer_1" data-name="Layer 1" xmlns="http://www.w3.org/2000/svg" viewBox="0 0 276 194"><defs><style>.cls-1{fill:#83cd29;}.cls-2{fill:#404137;}</style></defs><path class="cls-1" d="M239,87.15a3.42,3.42,0,0,0-1.66.4l-15.94,9.21a3.35,3.35,0,0,0-1.66,2.91V118a3.35,3.35,0,0,0,1.66,2.91l4.17,2.4a6.74,6.74,0,0,0,3.68,1c3,0,4.71-1.81,4.71-5V101.23a.45.45,0,0,0-.48-.44h-2a.46.46,0,0,0-.48.44v18.14c0,1.4-1.45,2.81-3.82,1.62l-4.33-2.53a.51.51,0,0,1-.27-.41V99.67a.56.56,0,0,1,.27-.44l15.91-9.17a.44.44,0,0,1,.47,0l15.91,9.17a.54.54,0,0,1,.27.44v18.38a.51.51,0,0,1-.24.44l-15.94,9.17a.49.49,0,0,1-.47,0l-4.1-2.43a.38.38,0,0,0-.4,0,10.63,10.63,0,0,1-2.4,1.08c-.26.09-.66.23.13.68l5.35,3.15a3.32,3.32,0,0,0,1.66.44,3.22,3.22,0,0,0,1.66-.44L256.56,121a3.35,3.35,0,0,0,1.65-2.91V99.68a3.34,3.34,0,0,0-1.65-2.91l-15.94-9.21a3.39,3.39,0,0,0-1.66-.4Zm4.27,13.13c-4.54,0-7.25,1.93-7.25,5.14,0,3.48,2.69,4.44,7,4.87,5.21.51,5.62,1.28,5.62,2.31,0,1.78-1.42,2.53-4.77,2.53-4.21,0-5.14-1-5.45-3.15a.46.46,0,0,0-.44-.4H235.9a.47.47,0,0,0-.47.47c0,2.68,1.46,5.85,8.42,5.85,5.05,0,8-2,8-5.44s-2.35-4.37-7.24-5-5.42-1-5.42-2.14c0-1,.4-2.23,4.06-2.23,3.27,0,4.48.71,5,2.91a.46.46,0,0,0,.44.38h2.07a.49.49,0,0,0,.33-.17.45.45,0,0,0,.14-.34c-.32-3.8-2.85-5.59-7.95-5.59Z"/><path class="cls-2" d="M145.24,63.05a1,1,0,0,0-.51.14,1.05,1.05,0,0,0-.51.88V90a.69.69,0,0,1-.33.61.71.71,0,0,1-.72,0l-4.23-2.44a2,2,0,0,0-2,0L120,97.88a2.05,2.05,0,0,0-1,1.79v19.5a2,2,0,0,0,1,1.76l16.88,9.74a2,2,0,0,0,2,0l16.89-9.74a2,2,0,0,0,1-1.76V70.57a2.08,2.08,0,0,0-1-1.8l-10.05-5.61a1,1,0,0,0-.51-.11ZM36.6,87.39a2,2,0,0,0-.91.23L18.8,97.37a2,2,0,0,0-1,1.76l0,26.16a1,1,0,0,0,.51.88,1,1,0,0,0,1,0l10-5.75a2.06,2.06,0,0,0,1.05-1.76V106.44a2,2,0,0,1,1-1.76l4.26-2.47a2,2,0,0,1,2,0L42,104.68a2,2,0,0,1,1,1.76v12.22a2.09,2.09,0,0,0,1,1.76l10,5.75a1,1,0,0,0,1,0,1,1,0,0,0,.51-.88l0-26.16a2,2,0,0,0-1-1.76L37.72,87.62a2,2,0,0,0-.91-.23Zm151.76.23a2,2,0,0,0-1,.28l-16.89,9.74a2,2,0,0,0-1,1.76v19.5a2,2,0,0,0,1,1.75l16.76,9.55a2,2,0,0,0,2,0l10.16-5.66a1,1,0,0,0,0-1.76l-17-9.74a1.09,1.09,0,0,1-.54-.92v-6.09a1,1,0,0,1,.54-.88l5.28-3a1,1,0,0,1,1,0l5.28,3a1,1,0,0,1,.5.88v4.8a1,1,0,0,0,.51.88,1,1,0,0,0,1,0l10.12-5.88a2.06,2.06,0,0,0,1-1.76V99.4a2,2,0,0,0-1-1.76L189.37,87.9a1.92,1.92,0,0,0-1-.27Zm-50.5,14.56a.5.5,0,0,1,.27.07l5.79,3.35a.51.51,0,0,1,.27.44v6.7a.52.52,0,0,1-.27.44l-5.79,3.35a.52.52,0,0,1-.51,0l-5.78-3.35a.52.52,0,0,1-.27-.44V106a.53.53,0,0,1,.27-.44l5.78-3.35a.5.5,0,0,1,.24-.06Z"/><path class="cls-1" d="M87.33,87.52a2.12,2.12,0,0,0-1,.27L69.43,97.51a2.07,2.07,0,0,0-1,1.79v19.49a2,2,0,0,0,1,1.76l16.89,9.75a2,2,0,0,0,2,0l16.89-9.75a2,2,0,0,0,1-1.76V99.3a2.06,2.06,0,0,0-1-1.79L88.35,87.79a2,2,0,0,0-1-.27Zm101,17.4a.44.44,0,0,0-.2,0l-3.25,1.9a.39.39,0,0,0-.2.34v3.72a.4.4,0,0,0,.2.34l3.25,1.86a.35.35,0,0,0,.37,0l3.25-1.86a.4.4,0,0,0,.2-.34v-3.72a.39.39,0,0,0-.2-.34l-3.25-1.9a.32.32,0,0,0-.17,0Z"/></svg>