<svg id="Layer_1" data-name="Layer 1" xmlns="http://www.w3.org/2000/svg" viewBox="0 0 276 194"><defs><style>.cls-1{fill:#fff;}.cls-1,.cls-2,.cls-3{fill-rule:evenodd;}.cls-2{fill:#ec1c24;}.cls-3{fill:#231f20;}</style></defs><polygon class="cls-1" points="69.83 28.83 206.17 28.83 206.17 165.17 69.83 165.17 69.83 28.83 69.83 28.83"/><path class="cls-2" d="M135.93,67.64c.09.09,19.94,45.35,19.92,45.31h-13c0-.14-6.16-14.75-6.09-14.83h-14c.12,0,13.4-30.63,13.2-30.48Z"/><path class="cls-2" d="M93.67,39.85h30.48c.09,0-30.27,73.1-30.38,73s-.07-73-.1-73Z"/><path class="cls-2" d="M147.35,39.85h31.52c0,.18,0,73.14,0,73,0,.24-31.49-73-31.49-73Z"/><path class="cls-3" d="M106.05,124.39l6.77,29h-4.93l-1.16-5.42H100.6l-1.13,5.42H94.54l6.77-29ZM105.79,143l-2.13-10.85L101.54,143Z"/><path class="cls-3" d="M123.91,153.36l-.12-2.52h-.17c-.67,2-2.12,3.31-4,3.31-4.35,0-6.19-5.09-6.19-11.38,0-5.38,1.35-11.22,6.25-11.22,1.71,0,2.52.62,3.74,2.24v-9.4h4.36v29Zm-3.09-17.55c-1.19,0-2.84,1.16-2.84,7,0,2.73.36,7.12,2.84,7.12s2.84-3.93,2.84-7.12c0-5.88-1.68-7-2.84-7Z"/><path class="cls-3" d="M130.88,142.81c0-6.5,2.26-11.26,7.39-11.26s7.38,4.76,7.38,11.26-2.32,11.34-7.38,11.34-7.39-4.76-7.39-11.34Zm10.25,0c0-5.71-1.19-7-2.86-7-1.33,0-2.87,1-2.87,7s1.54,7.12,2.87,7.12c1.87,0,2.86-1.74,2.86-7.12Z"/><path class="cls-3" d="M152.55,153.36h-3.91v-29H153V134a3.89,3.89,0,0,1,3.71-2.48c4.61,0,6.29,4.84,6.29,11.22s-1.65,11.38-6.26,11.38c-1.9,0-3-1-4-3.31h-.12l-.13,2.52Zm3.12-3.43c2.39,0,2.84-3.93,2.84-7.12,0-5.88-1.68-7-2.84-7s-2.83,1.16-2.83,7c0,2.73.35,7.12,2.83,7.12Z"/><path class="cls-3" d="M179.54,147.28c-1.1,6.37-4.65,6.87-7,6.87-2.68,0-7.26-1-7.26-11.34,0-7.2,3-11.26,7.58-11.26,2.9,0,7,1.61,7,11.67v1.16H169.77c0,5,1.71,5.55,2.93,5.55,1,0,2-.29,2.45-2.65Zm-4.23-6.42c-.13-4.26-1.16-5.09-2.61-5.09-2.48,0-2.9,3.52-2.93,5.09Z"/><path class="cls-3" d="M181.09,41.55v-1.7h7.43v1.7h-2.75v7.23h-1.93V41.55Zm9.82.34v6.89H189V39.85h2.55l2.52,7,2.5-7h2.52v8.93h-1.93V41.89l-2.45,6.89h-1.36l-2.42-6.89Z"/></svg>