<svg id="Layer_1" data-name="Layer 1" xmlns="http://www.w3.org/2000/svg" viewBox="0 0 276 194"><defs><style>.cls-1{fill:#6f6f6f;}.cls-2{fill:#f25022;}.cls-3{fill:#ffb901;}.cls-4{fill:#83be04;}.cls-5{fill:#01a4ef;}</style></defs><path class="cls-1" d="M115.22,110.71h-4.44V93.25c0-1.43.09-3.18.26-5.25H111a17.77,17.77,0,0,1-.74,2.54l-8,20.17H99.1L91,90.69A18.23,18.23,0,0,1,90.31,88h-.07q.15,1.62.15,5.28v17.43H86.25v-27h6.3l7.09,18a28,28,0,0,1,1.06,3.09h.09c.46-1.42.84-2.47,1.13-3.16l7.22-17.89h6.08Z"/><path class="cls-1" d="M124.34,87.4a2.65,2.65,0,0,1-1.83-.7,2.27,2.27,0,0,1-.76-1.77,2.36,2.36,0,0,1,.76-1.79,2.61,2.61,0,0,1,1.83-.71,2.68,2.68,0,0,1,1.88.71,2.34,2.34,0,0,1,.78,1.79,2.28,2.28,0,0,1-.78,1.74A2.65,2.65,0,0,1,124.34,87.4Zm2.17,23.31h-4.37V91.44h4.37Z"/><path class="cls-1" d="M146.77,109.82a10.8,10.8,0,0,1-5.48,1.34,9.3,9.3,0,0,1-6.92-2.68,9.5,9.5,0,0,1-2.63-7,10.42,10.42,0,0,1,2.83-7.64A10.09,10.09,0,0,1,142.14,91a11.15,11.15,0,0,1,4.65.92V96a7.09,7.09,0,0,0-4.29-1.5A6,6,0,0,0,138,96.34a6.84,6.84,0,0,0-1.77,4.9,6.51,6.51,0,0,0,1.67,4.72,5.9,5.9,0,0,0,4.47,1.74,7,7,0,0,0,4.44-1.68Z"/><path class="cls-1" d="M163,95.6a3.6,3.6,0,0,0-2.28-.62,3.87,3.87,0,0,0-3.23,1.75,7.77,7.77,0,0,0-1.3,4.76v9.22h-4.36V91.44h4.36v4h.08a6.71,6.71,0,0,1,2-3.17,4.44,4.44,0,0,1,3-1.14,3.66,3.66,0,0,1,1.81.36Z"/><path class="cls-1" d="M175.1,111.16a9.54,9.54,0,0,1-7.12-2.7,9.74,9.74,0,0,1-2.66-7.16A9.51,9.51,0,0,1,175.57,91a9.26,9.26,0,0,1,7,2.65,10.25,10.25,0,0,1,2.52,7.36,10.1,10.1,0,0,1-2.72,7.38A9.77,9.77,0,0,1,175.1,111.16Zm.21-16.69a5,5,0,0,0-4.05,1.79,7.48,7.48,0,0,0-1.49,4.93,7.07,7.07,0,0,0,1.51,4.77,5.06,5.06,0,0,0,4,1.74,4.83,4.83,0,0,0,4-1.72,7.57,7.57,0,0,0,1.38-4.87,7.7,7.7,0,0,0-1.38-4.91A4.8,4.8,0,0,0,175.31,94.47Z"/><path class="cls-1" d="M189.13,110.1v-4a8.71,8.71,0,0,0,5.4,1.86c2.64,0,3.95-.78,3.95-2.33a1.82,1.82,0,0,0-.34-1.12,3.17,3.17,0,0,0-.91-.82,7.08,7.08,0,0,0-1.35-.64l-1.74-.64a17.09,17.09,0,0,1-2.14-1,6.6,6.6,0,0,1-1.58-1.19,4.53,4.53,0,0,1-.95-1.51,5.71,5.71,0,0,1-.32-2,4.57,4.57,0,0,1,.66-2.46,5.78,5.78,0,0,1,1.77-1.78,8.19,8.19,0,0,1,2.52-1.09A11.29,11.29,0,0,1,197,91a13.18,13.18,0,0,1,4.77.81v3.82a8,8,0,0,0-4.66-1.39,6.33,6.33,0,0,0-1.5.16,4.25,4.25,0,0,0-1.14.47,2.54,2.54,0,0,0-.73.73,1.76,1.76,0,0,0-.26.93,2,2,0,0,0,.26,1,2.49,2.49,0,0,0,.78.77,6.83,6.83,0,0,0,1.24.6c.49.18,1,.38,1.67.59a22.4,22.4,0,0,1,2.23,1,7.19,7.19,0,0,1,1.68,1.19,4.65,4.65,0,0,1,1.07,1.54,5.29,5.29,0,0,1,.38,2.08,4.77,4.77,0,0,1-.68,2.56,5.66,5.66,0,0,1-1.8,1.81,8.61,8.61,0,0,1-2.61,1.06,13.59,13.59,0,0,1-3.11.35A13,13,0,0,1,189.13,110.1Z"/><path class="cls-1" d="M216.26,111.16a9.54,9.54,0,0,1-7.12-2.7,9.78,9.78,0,0,1-2.66-7.16A9.51,9.51,0,0,1,216.73,91a9.24,9.24,0,0,1,7,2.65,10.25,10.25,0,0,1,2.52,7.36,10.1,10.1,0,0,1-2.72,7.38A9.77,9.77,0,0,1,216.26,111.16Zm.21-16.69a5,5,0,0,0-4.05,1.79,7.48,7.48,0,0,0-1.48,4.93,7.06,7.06,0,0,0,1.5,4.77,5.06,5.06,0,0,0,4,1.74,4.8,4.8,0,0,0,4-1.72,7.57,7.57,0,0,0,1.38-4.87,7.7,7.7,0,0,0-1.38-4.91A4.78,4.78,0,0,0,216.47,94.47Z"/><path class="cls-1" d="M241.75,85.74a4,4,0,0,0-2-.51q-3.18,0-3.18,3.6v2.61H241v3.42h-4.46v15.85h-4.37V94.86h-3.29V91.44h3.29V88.32a6.09,6.09,0,0,1,2-4.81,7.27,7.27,0,0,1,5-1.76,7.37,7.37,0,0,1,2.56.36Z"/><path class="cls-1" d="M255.79,110.5a7.55,7.55,0,0,1-3.37.64c-3.74,0-5.61-1.8-5.61-5.38V94.86h-3.22V91.44h3.22V87l4.37-1.24v5.7h4.61v3.42h-4.61v9.64a3.75,3.75,0,0,0,.62,2.44,2.57,2.57,0,0,0,2.07.74,3,3,0,0,0,1.92-.64Z"/><rect class="cls-2" x="20.21" y="71.64" width="23.76" height="23.76"/><rect class="cls-3" x="47.17" y="98.6" width="23.76" height="23.76"/><rect class="cls-4" x="47.17" y="71.64" width="23.76" height="23.76"/><rect class="cls-5" x="20.21" y="98.6" width="23.76" height="23.76"/></svg>