<svg id="Layer_1" data-name="Layer 1" xmlns="http://www.w3.org/2000/svg" viewBox="0 0 276 194"><defs><style>.cls-1{fill:#326ce5;}.cls-2{fill:#fff;stroke:#fff;stroke-miterlimit:10;stroke-width:0.05px;}</style></defs><path class="cls-1" d="M49.21,62.74a4.77,4.77,0,0,0-1.81.48L22.82,75a4.68,4.68,0,0,0-2.54,3.16l-6,26.33A4.68,4.68,0,0,0,14.9,108l.27.37,17,21.13a4.69,4.69,0,0,0,3.66,1.73H63.09a4.72,4.72,0,0,0,3.67-1.74l17-21.14a4.62,4.62,0,0,0,.9-3.94L78.59,78.08a4.64,4.64,0,0,0-2.54-3.16L51.49,63.22A4.71,4.71,0,0,0,49.21,62.74Z"/><path class="cls-2" d="M49.46,71.7A1.55,1.55,0,0,0,48,73.34v.41a11,11,0,0,0,.2,1.4,14,14,0,0,1,.14,2.67,1.57,1.57,0,0,1-.48.76l0,.63a18.38,18.38,0,0,0-2.66.41,18.82,18.82,0,0,0-9.61,5.48l-.53-.38a1.15,1.15,0,0,1-.87-.08,13.46,13.46,0,0,1-2-1.79,13.3,13.3,0,0,0-1-1l-.33-.26a1.73,1.73,0,0,0-1-.38,1.39,1.39,0,0,0-1.17.52,1.55,1.55,0,0,0,.36,2.17l.3.24a11.4,11.4,0,0,0,1.22.71,13.26,13.26,0,0,1,2.2,1.52,1.65,1.65,0,0,1,.3.85l.48.42a19,19,0,0,0-3,13.26l-.62.18a2,2,0,0,1-.63.64,13.75,13.75,0,0,1-2.63.43,13.37,13.37,0,0,0-1.42.11l-.38.1h0A1.47,1.47,0,0,0,23.58,104a1.53,1.53,0,0,0,.42.85,1.49,1.49,0,0,0,1.51.36h0l.4,0a12.23,12.23,0,0,0,1.32-.48,13.52,13.52,0,0,1,2.57-.75,1.61,1.61,0,0,1,.84.3l.64-.11a19.15,19.15,0,0,0,8.48,10.6l-.27.56a1.49,1.49,0,0,1,.13.83,14.89,14.89,0,0,1-1.33,2.41,11.55,11.55,0,0,0-.79,1.18l-.19.39a1.47,1.47,0,0,0,.53,2,1.42,1.42,0,0,0,.9.19,1.46,1.46,0,0,0,1.22-1l.18-.38a12.47,12.47,0,0,0,.43-1.35A10.08,10.08,0,0,1,41.73,117a1.21,1.21,0,0,1,.63-.31l.33-.6a19,19,0,0,0,13.57,0l.29.57a1.18,1.18,0,0,1,.75.45,13.93,13.93,0,0,1,1,2.47,12.47,12.47,0,0,0,.43,1.35l.18.38a1.48,1.48,0,0,0,1.9.87,1.52,1.52,0,0,0,.72-.58,1.49,1.49,0,0,0,0-1.55l-.2-.39a10.42,10.42,0,0,0-.79-1.17,14.08,14.08,0,0,1-1.3-2.34,1.14,1.14,0,0,1,.15-.88,6.14,6.14,0,0,1-.25-.59A19.13,19.13,0,0,0,67.64,104l.62.11a1.11,1.11,0,0,1,.83-.3,12.73,12.73,0,0,1,2.56.75q.64.28,1.32.51l.39.08h0a1.48,1.48,0,0,0,1.86-.94,1.44,1.44,0,0,0,0-.94,1.47,1.47,0,0,0-1.2-1l-.44-.1a13.18,13.18,0,0,0-1.41-.11,13.75,13.75,0,0,1-2.63-.43,1.64,1.64,0,0,1-.64-.64l-.59-.17a19.15,19.15,0,0,0-3.06-13.23l.52-.48a1.15,1.15,0,0,1,.27-.84,13.86,13.86,0,0,1,2.19-1.53,13.47,13.47,0,0,0,1.22-.72l.32-.26a1.48,1.48,0,0,0,.48-2,1.5,1.5,0,0,0-.77-.61,1.48,1.48,0,0,0-1.54.35l-.33.26a13.3,13.3,0,0,0-1,1,13.29,13.29,0,0,1-1.93,1.82,1.59,1.59,0,0,1-.89.09l-.56.4a19.25,19.25,0,0,0-12.21-5.89c0-.19,0-.55,0-.66a1.15,1.15,0,0,1-.48-.73,13.94,13.94,0,0,1,.17-2.66,13.1,13.1,0,0,0,.2-1.4v-.42a1.56,1.56,0,0,0-1.45-1.63ZM47.62,83.1l-.43,7.71h0a1.29,1.29,0,0,1-1.35,1.24,1.31,1.31,0,0,1-.71-.24l-6.32-4.48a15.19,15.19,0,0,1,7.29-4c.52-.11,1-.19,1.56-.25Zm3.68,0a15.35,15.35,0,0,1,8.81,4.25L53.84,91.8A1.29,1.29,0,0,1,52,91.6a1.25,1.25,0,0,1-.28-.79ZM36.47,90.23l5.78,5.16v0a1.29,1.29,0,0,1,.12,1.83,1.27,1.27,0,0,1-.63.4v0l-7.42,2.14a15.11,15.11,0,0,1,2.15-9.58Zm25.94,0a15.4,15.4,0,0,1,2.21,9.55l-7.43-2.14v0A1.3,1.3,0,0,1,56.28,96a1.36,1.36,0,0,1,.4-.63l5.73-5.14ZM48.28,95.8h2.36l1.44,1.83-.53,2.29-2.12,1-2.13-1-.5-2.3Zm7.58,6.26a1.4,1.4,0,0,1,.29,0l7.66,1.29a15.17,15.17,0,0,1-6.13,7.71l-3-7.17a1.3,1.3,0,0,1,.69-1.7,1.13,1.13,0,0,1,.44-.1ZM43,102.1a1.3,1.3,0,0,1,1.28,1.31,1.17,1.17,0,0,1-.11.49v0L41.23,111a15.21,15.21,0,0,1-6.08-7.63l7.58-1.29a1.13,1.13,0,0,1,.26,0Zm6.41,3.11a1.31,1.31,0,0,1,1.19.68h0l3.74,6.74a12.82,12.82,0,0,1-1.5.42,15.09,15.09,0,0,1-8.29-.43l3.73-6.74a1.3,1.3,0,0,1,1.1-.65Z"/><path d="M100.18,98.37l1.42-1.55c.49-.54,1-1.07,1.42-1.6l1.3-1.5,1.05-1.25h5.53c-1.11,1.27-2.18,2.48-3.23,3.63s-2.2,2.34-3.45,3.57a21.7,21.7,0,0,1,1.93,2c.66.78,1.3,1.58,1.92,2.41s1.2,1.66,1.72,2.5,1,1.6,1.31,2.29h-5.35c-.32-.55-.7-1.15-1.14-1.81s-.88-1.3-1.35-1.93-1-1.28-1.51-1.9a13.34,13.34,0,0,0-1.57-1.53v7.2H95.52V85.42l4.66-.75V98.38Zm27.13,10a26.82,26.82,0,0,1-3.06.64,25.94,25.94,0,0,1-3.94.3,9.39,9.39,0,0,1-3.48-.57,5.25,5.25,0,0,1-2.2-1.57,6.06,6.06,0,0,1-1.16-2.41,13,13,0,0,1-.34-3.1V92.48h4.65v8.57a6.58,6.58,0,0,0,.6,3.25,2.34,2.34,0,0,0,2.21,1c.32,0,.68,0,1.06,0s.72-.07,1-.11V92.47h4.66ZM147,100.68a10.46,10.46,0,0,1-.58,3.56,7.55,7.55,0,0,1-1.67,2.72A7.47,7.47,0,0,1,142,108.7a9.94,9.94,0,0,1-3.62.6c-.56,0-1.15,0-1.76-.07s-1.22-.12-1.82-.2-1.16-.19-1.7-.3-1-.24-1.44-.36v-23l4.65-.75v8.19a9.13,9.13,0,0,1,1.63-.53,8.43,8.43,0,0,1,1.81-.19,7.45,7.45,0,0,1,3.09.61,6,6,0,0,1,2.25,1.74,7.86,7.86,0,0,1,1.38,2.7A12.57,12.57,0,0,1,147,100.68Zm-4.75-.12q0-4.5-3.31-4.5a5.65,5.65,0,0,0-1.42.19,4,4,0,0,0-1.14.48v8.45c.22,0,.51.08.86.11s.74,0,1.16,0a3.35,3.35,0,0,0,2.89-1.31,5.71,5.71,0,0,0,1-3.47Zm7.55.25a10,10,0,0,1,.67-3.83,8.08,8.08,0,0,1,1.77-2.73,7.21,7.21,0,0,1,2.51-1.63,7.71,7.71,0,0,1,2.92-.57,7.28,7.28,0,0,1,5.53,2.14q2,2.15,2,6.3c0,.27,0,.56,0,.89s0,.6-.06.86H154.54a3,3,0,0,0,1.34,2.27,5.37,5.37,0,0,0,3.19.85,13.26,13.26,0,0,0,2.51-.24,9.51,9.51,0,0,0,2-.58l.62,3.78a7,7,0,0,1-1,.38c-.46.13-.92.24-1.39.33s-1.06.17-1.64.24a17,17,0,0,1-1.75.09,10.34,10.34,0,0,1-3.85-.66,7.32,7.32,0,0,1-2.72-1.8,7,7,0,0,1-1.59-2.7,10.54,10.54,0,0,1-.53-3.39ZM160.69,99a5,5,0,0,0-.2-1.16,3,3,0,0,0-.53-1,2.9,2.9,0,0,0-.91-.72,3,3,0,0,0-1.36-.28,3.09,3.09,0,0,0-1.34.27,2.69,2.69,0,0,0-.94.7,3.11,3.11,0,0,0-.57,1,5.91,5.91,0,0,0-.3,1.17Zm18-2.44-1.45-.33a10,10,0,0,0-1.81-.17,9.28,9.28,0,0,0-1,.08,5.73,5.73,0,0,0-.92.17v12.53H168.8V93.34a27.09,27.09,0,0,1,2.93-.82,17.17,17.17,0,0,1,3.79-.39c.25,0,.55,0,.91.05l1.06.12c.35,0,.7.12,1.06.2a4.64,4.64,0,0,1,.9.26ZM182,93A24.83,24.83,0,0,1,185,92.4a23.68,23.68,0,0,1,3.94-.3,9.42,9.42,0,0,1,3.49.55,5.19,5.19,0,0,1,2.21,1.54,6.08,6.08,0,0,1,1.15,2.37,12.17,12.17,0,0,1,.34,3.06v9.28h-4.66v-8.72a6.19,6.19,0,0,0-.59-3.18,2.41,2.41,0,0,0-2.21-.93,10,10,0,0,0-1.06.05c-.39,0-.72.06-1,.11V108.9H182V93Zm17.62,7.77a10,10,0,0,1,.67-3.83A8.21,8.21,0,0,1,202,94.25a7.17,7.17,0,0,1,2.5-1.63,7.67,7.67,0,0,1,2.92-.57,7.26,7.26,0,0,1,5.52,2.14q2,2.15,2,6.3c0,.27,0,.56,0,.89s0,.6-.06.86H204.32a3,3,0,0,0,1.34,2.27,5.37,5.37,0,0,0,3.19.85,13.26,13.26,0,0,0,2.51-.24,9.51,9.51,0,0,0,2-.58l.62,3.78a7,7,0,0,1-1,.38c-.46.13-.92.24-1.39.33s-1.06.17-1.64.24a17.09,17.09,0,0,1-1.75.09,10.34,10.34,0,0,1-3.85-.66,7.32,7.32,0,0,1-2.72-1.8,6.87,6.87,0,0,1-1.58-2.71,10.75,10.75,0,0,1-.52-3.38ZM210.5,99a4.56,4.56,0,0,0-.21-1.16,3,3,0,0,0-.53-1,2.86,2.86,0,0,0-.9-.72,3,3,0,0,0-1.36-.28,3.17,3.17,0,0,0-1.35.27,2.75,2.75,0,0,0-.93.7,3.14,3.14,0,0,0-.58,1,7.72,7.72,0,0,0-.3,1.17Zm7.92-10.65,4.66-.76v4.82h5.59V96.3h-5.59v5.78a4.63,4.63,0,0,0,.51,2.34,2.23,2.23,0,0,0,2.08.87,8.91,8.91,0,0,0,1.54-.14,7.22,7.22,0,0,0,1.45-.39l.65,3.62a12.34,12.34,0,0,1-1.87.6,11.31,11.31,0,0,1-2.53.25,8.22,8.22,0,0,1-3.15-.52,4.88,4.88,0,0,1-2-1.44,5.39,5.39,0,0,1-1-2.23,14.06,14.06,0,0,1-.3-2.9V88.38Zm12.72,12.43a10.21,10.21,0,0,1,.67-3.83,8.08,8.08,0,0,1,1.77-2.73,7.3,7.3,0,0,1,2.51-1.63,7.71,7.71,0,0,1,2.92-.57,7.27,7.27,0,0,1,5.53,2.14q2,2.15,2,6.28c0,.27,0,.57,0,.89s0,.61-.06.86H235.92a3.1,3.1,0,0,0,1.34,2.28,5.38,5.38,0,0,0,3.19.84,14.23,14.23,0,0,0,2.52-.23,9.43,9.43,0,0,0,2-.58l.63,3.78a6.35,6.35,0,0,1-1,.37,11.22,11.22,0,0,1-1.39.33c-.51.1-1.06.18-1.64.24a17,17,0,0,1-1.75.09,10.33,10.33,0,0,1-3.85-.65,7.57,7.57,0,0,1-2.72-1.8,7.15,7.15,0,0,1-1.61-2.7,10.74,10.74,0,0,1-.51-3.38ZM242.08,99a4.55,4.55,0,0,0-.2-1.16,3,3,0,0,0-.53-1,3,3,0,0,0-.9-.72,3.07,3.07,0,0,0-1.36-.28,3.11,3.11,0,0,0-1.35.27,2.86,2.86,0,0,0-1,.7,3.28,3.28,0,0,0-.58,1,7,7,0,0,0-.29,1.18Zm12.79,6.53a4.65,4.65,0,0,0,1.81-.26,1,1,0,0,0,.53-1,1.16,1.16,0,0,0-.69-1,13.65,13.65,0,0,0-2.09-1,20.44,20.44,0,0,1-2-.84,6,6,0,0,1-1.51-1,4.23,4.23,0,0,1-1-1.44,5.23,5.23,0,0,1-.34-2,4.36,4.36,0,0,1,1.71-3.65,7.43,7.43,0,0,1,4.71-1.35,14.9,14.9,0,0,1,2.9.26,13.74,13.74,0,0,1,2.18.58l-.81,3.63a15.3,15.3,0,0,0-1.76-.49,9.59,9.59,0,0,0-2.14-.21c-1.46,0-2.19.4-2.19,1.22a1.36,1.36,0,0,0,.09.48,1.18,1.18,0,0,0,.38.42,6.41,6.41,0,0,0,.77.44c.32.16.73.33,1.23.52a19.6,19.6,0,0,1,2.53,1.11,6.13,6.13,0,0,1,1.58,1.19,3.71,3.71,0,0,1,.8,1.42,6.17,6.17,0,0,1,.24,1.81A4.13,4.13,0,0,1,260,108.1a9.19,9.19,0,0,1-5.16,1.26,14.87,14.87,0,0,1-3.64-.38,15.1,15.1,0,0,1-2-.62l.78-3.78a15.8,15.8,0,0,0,2.43.73A11.91,11.91,0,0,0,254.87,105.56Z"/></svg>