<svg id="Layer_1" data-name="Layer 1" xmlns="http://www.w3.org/2000/svg" viewBox="0 0 276 194"><defs><style>.cls-1{fill:#ea4335;}.cls-2{fill:#4285f4;}.cls-3{fill:#34a853;}.cls-4{fill:#fbbc05;}.cls-5{fill:#5f6368;}</style></defs><path class="cls-1" d="M148.09,58.78l2.37,0,6.44-6.44.31-2.72A28.93,28.93,0,0,0,110,63.71a3.49,3.49,0,0,1,2.21-.12l12.87-2.12s.67-1.1,1-1a16.08,16.08,0,0,1,22-1.66Z"/><path class="cls-2" d="M166,63.74a29,29,0,0,0-8.73-14.09l-9.12,9.13a16.07,16.07,0,0,1,6,12.51V72.9a8,8,0,0,1,0,16.08H138l-1.61,1.62v9.65l1.61,1.6h16.09A20.89,20.89,0,0,0,166,63.74Z"/><path class="cls-3" d="M121.91,101.86H138V89H121.91a7.89,7.89,0,0,1-3.31-.72l-2.32.71-6.44,6.44-.57,2.18a20.71,20.71,0,0,0,12.64,4.27Z"/><path class="cls-4" d="M121.91,60a20.91,20.91,0,0,0-12.63,37.58l9.32-9.33a8,8,0,1,1,10.63-10.63l9.33-9.32A20.87,20.87,0,0,0,121.9,60Z"/><path class="cls-5" d="M38.54,142.43a15.66,15.66,0,0,1-11.35-4.67,15.57,15.57,0,0,1,0-22.41,15.68,15.68,0,0,1,11.35-4.66,15.13,15.13,0,0,1,10.87,4.37l-3.06,3.06a11.38,11.38,0,0,0-15.89.27,11.73,11.73,0,0,0,0,16.33,10.84,10.84,0,0,0,8.08,3.37,10.77,10.77,0,0,0,8-3.17,9.15,9.15,0,0,0,2.37-5.46H38.54v-4.34h14.6a13.47,13.47,0,0,1,.21,2.69c0,4.27-1.25,7.64-3.76,10.15a14.63,14.63,0,0,1-11.08,4.45Zm33.92-2.91a10.56,10.56,0,0,1-14.56,0,10.41,10.41,0,0,1,0-14.58,10.59,10.59,0,0,1,14.56,0,10.41,10.41,0,0,1,0,14.58Zm-11.34-2.86a5.57,5.57,0,0,0,8.13,0,6.09,6.09,0,0,0,1.7-4.43,6.19,6.19,0,0,0-1.68-4.46,5.67,5.67,0,0,0-8.17,0,6.66,6.66,0,0,0,0,8.89Zm33.72,2.86a10.56,10.56,0,0,1-14.56,0,10.41,10.41,0,0,1,0-14.58,10.59,10.59,0,0,1,14.56,0,10.41,10.41,0,0,1,0,14.58Zm-11.35-2.86a5.59,5.59,0,0,0,8.14,0,6.09,6.09,0,0,0,1.7-4.43,6.19,6.19,0,0,0-1.68-4.46,5.68,5.68,0,0,0-8.18,0,6.16,6.16,0,0,0-1.68,4.46,6.09,6.09,0,0,0,1.7,4.43Zm26.06,15a9,9,0,0,1-5.73-1.83,10.49,10.49,0,0,1-3.33-4.22L104.4,144a6.35,6.35,0,0,0,1.94,2.55,4.86,4.86,0,0,0,3.21,1.09,5.25,5.25,0,0,0,4-1.55,6.32,6.32,0,0,0,1.45-4.46v-1.45h-.16a6.52,6.52,0,0,1-5.38,2.33,9.37,9.37,0,0,1-6.85-3,9.85,9.85,0,0,1-2.94-7.21,10,10,0,0,1,2.94-7.25,9.31,9.31,0,0,1,6.85-3,7.24,7.24,0,0,1,3.16.66,6.39,6.39,0,0,1,2.22,1.62H115v-1.65h4.26V141q0,5.34-2.73,8a9.63,9.63,0,0,1-7,2.66Zm.31-13.21a5,5,0,0,0,3.89-1.76,6.38,6.38,0,0,0,1.57-4.39,6.55,6.55,0,0,0-1.57-4.46,5,5,0,0,0-3.89-1.78,5.33,5.33,0,0,0-4,1.78,6.3,6.3,0,0,0-1.66,4.46,6.14,6.14,0,0,0,1.66,4.39,5.32,5.32,0,0,0,4,1.76Zm17-26.66v30.05h-4.49v-30Zm12.31,30.66a9.77,9.77,0,0,1-7.24-2.94,9.92,9.92,0,0,1-2.9-7.28,10,10,0,0,1,2.8-7.35,9.24,9.24,0,0,1,6.83-2.87,8.57,8.57,0,0,1,3.45.68,8,8,0,0,1,2.63,1.74,11.92,11.92,0,0,1,1.67,2.07,13.49,13.49,0,0,1,1,2l.46,1.16-13.66,5.66a5.17,5.17,0,0,0,4.95,3.1,5.87,5.87,0,0,0,5-2.82l3.48,2.32a11.42,11.42,0,0,1-3.29,3.14,9.36,9.36,0,0,1-5.23,1.39Zm-5.69-10.52,9.12-3.8a3.15,3.15,0,0,0-1.45-1.56,4.67,4.67,0,0,0-2.37-.6,5.32,5.32,0,0,0-3.69,1.62,5.48,5.48,0,0,0-1.65,4.34Zm38,10.52a14.48,14.48,0,1,1,0-29A12.83,12.83,0,0,1,181.63,118l-2.47,2.4a9.34,9.34,0,0,0-7.71-3.52,10.56,10.56,0,0,0-10.78,11.07,10.72,10.72,0,0,0,3.11,8,10.48,10.48,0,0,0,7.67,3.06,10.84,10.84,0,0,0,8.49-4l2.48,2.48a13.69,13.69,0,0,1-4.77,3.62,14.65,14.65,0,0,1-6.22,1.33Zm17.73-.61h-3.56V114.09h3.56Zm5.81-16.7a9.95,9.95,0,0,1,14,0,10.85,10.85,0,0,1,0,14.44,9.95,9.95,0,0,1-14,0,10.85,10.85,0,0,1,0-14.44Zm2.65,12.19a6,6,0,0,0,8.71,0,6.74,6.74,0,0,0,1.84-5,6.83,6.83,0,0,0-1.84-5,6,6,0,0,0-8.71,0,6.75,6.75,0,0,0-1.84,5A6.82,6.82,0,0,0,197.64,137.3Zm33.82,4.51h-3.41v-2.63h-.15a6.41,6.41,0,0,1-2.48,2.28,7.34,7.34,0,0,1-3.52.95,6.66,6.66,0,0,1-5.4-2.17,8.67,8.67,0,0,1-1.84-5.81V122.82h3.56v11c0,3.54,1.56,5.3,4.69,5.3a4.37,4.37,0,0,0,3.6-1.77,6.51,6.51,0,0,0,1.39-4.11V122.82h3.56v19Zm12.08.62a8.31,8.31,0,0,1-6.35-2.91,11.06,11.06,0,0,1,0-14.41,8.35,8.35,0,0,1,6.35-2.9,8.07,8.07,0,0,1,3.89.93,6.52,6.52,0,0,1,2.58,2.32h.15l-.15-2.63v-8.75h3.56v27.73h-3.41v-2.63H250a6.67,6.67,0,0,1-2.58,2.32,8.18,8.18,0,0,1-3.89.92Zm.58-3.26a5.69,5.69,0,0,0,4.28-1.86,7.9,7.9,0,0,0,0-9.94,5.81,5.81,0,0,0-8.54,0,7.83,7.83,0,0,0,0,9.94,5.65,5.65,0,0,0,4.26,1.88Z"/></svg>