<svg id="Layer_1" data-name="Layer 1" xmlns="http://www.w3.org/2000/svg" viewBox="0 0 276 194"><defs><style>.cls-1{fill:#303f9f;}.cls-2{fill:#3f51b5;}.cls-3{fill:#7986cb;}.cls-4{fill:#ff4081;}.cls-5{fill:#536dfe;}.cls-6,.cls-7,.cls-8{fill:#fff;}.cls-10,.cls-6{fill-opacity:0.2;}.cls-7,.cls-9{fill-opacity:0.1;}.cls-8{fill-opacity:0;}.cls-11{fill-opacity:0.3;}.cls-12{fill-opacity:0.4;}.cls-13{fill-opacity:0.5;}.cls-14{fill:gray;}</style></defs><path class="cls-1" d="M41.6,97l-9.37,16.23,9.37,16.23L51,113.23Z"/><path class="cls-2" d="M97.82,64.54,88.45,80.77,97.82,97l9.37-16.23Z"/><path class="cls-3" d="M107.18,80.77,79.07,129.46H97.81L116.55,97Z"/><path class="cls-4" d="M79.08,64.54,41.6,129.46H60.34L97.82,64.54Z"/><path class="cls-5" d="M41.6,64.54,22.86,97l9.37,16.23L60.34,64.54Z"/><path class="cls-6" d="M79.08,64.54l9.37,16.23,9.37-16.23Z"/><path class="cls-7" d="M69.71,80.77l9.37-16.23,9.37,16.23Z"/><path class="cls-8" d="M69.71,80.77,79.08,97l9.37-16.23Z"/><path class="cls-9" d="M60.34,97l9.37-16.23L79.08,97Z"/><path class="cls-10" d="M60.34,97l9.37,16.23L79.08,97Z"/><path class="cls-11" d="M51,113.23,60.34,97l9.37,16.23Z"/><path class="cls-12" d="M51,113.23l9.38,16.23,9.37-16.23Z"/><path class="cls-13" d="M41.6,129.46,51,113.23l9.37,16.23Z"/><path class="cls-6" d="M41.6,64.54,51,80.77l9.37-16.23Z"/><path class="cls-7" d="M32.23,80.77,41.6,64.54,51,80.77Z"/><path class="cls-8" d="M32.23,80.77,41.6,97,51,80.77Z"/><path class="cls-9" d="M22.86,97l9.37-16.23L41.6,97Z"/><path class="cls-10" d="M22.86,97l9.37,16.23L41.6,97Z"/><path class="cls-8" d="M51,113.23,41.6,97l-9.37,16.23Z"/><path class="cls-10" d="M51,113.23l-9.37,16.23-9.37-16.23Zm56.22-32.46L97.81,64.54,88.44,80.77Z"/><path class="cls-8" d="M107.18,80.77,97.82,97,88.45,80.77Z"/><path class="cls-6" d="M97.82,97l9.37-16.23L116.56,97Z"/><path class="cls-7" d="M97.82,97l9.37,16.23L116.56,97Z"/><path class="cls-8" d="M88.45,113.23,97.82,97l9.37,16.23Z"/><path class="cls-9" d="M88.45,113.23l9.37,16.23,9.37-16.23Z"/><path class="cls-10" d="M79.08,129.46l9.37-16.23,9.37,16.23Z"/><path class="cls-14" d="M130.19,83.26a37,37,0,0,1,6.16-.48c3.17,0,5.49.74,7,2.06a6.7,6.7,0,0,1,2.17,5.2,7.33,7.33,0,0,1-1.91,5.31c-1.7,1.81-4.47,2.73-7.6,2.73a10.7,10.7,0,0,1-2.58-.22v10h-3.21Zm3.21,12a10.43,10.43,0,0,0,2.65.26c3.87,0,6.23-1.88,6.23-5.31,0-3.28-2.32-4.87-5.86-4.87a13.23,13.23,0,0,0-3,.26Z"/><path class="cls-14" d="M164.93,98.75c0,6.6-4.57,9.47-8.89,9.47-4.83,0-8.55-3.54-8.55-9.18,0-6,3.9-9.47,8.85-9.47C161.46,89.57,164.93,93.29,164.93,98.75Zm-14.16.18c0,3.91,2.25,6.86,5.42,6.86s5.42-2.91,5.42-6.93c0-3-1.51-6.86-5.35-6.86S150.77,95.54,150.77,98.93Z"/><path class="cls-14" d="M169,81.64h3.25v26.18H169Z"/><path class="cls-14" d="M178.91,90l3.91,10.55c.4,1.18.84,2.58,1.14,3.65H184c.33-1.07.7-2.44,1.15-3.73L188.72,90h3.43l-4.87,12.72c-2.33,6.12-3.91,9.26-6.12,11.18a8.87,8.87,0,0,1-4,2.1l-.81-2.73a8.51,8.51,0,0,0,2.84-1.59,9.78,9.78,0,0,0,2.73-3.61,2.29,2.29,0,0,0,.26-.77,3,3,0,0,0-.22-.85L175.37,90Z"/><path class="cls-14" d="M195.1,94.8c0-1.84,0-3.35-.15-4.83h2.84l.15,2.88h.11a6.13,6.13,0,0,1,5.6-3.28,5.26,5.26,0,0,1,5,3.57h.08a7.29,7.29,0,0,1,2-2.32,6.1,6.1,0,0,1,3.95-1.25c2.36,0,5.86,1.54,5.86,7.74v10.51h-3.17V97.72c0-3.43-1.26-5.5-3.87-5.5a4.19,4.19,0,0,0-3.84,3,5.24,5.24,0,0,0-.26,1.62v11h-3.17V97.13c0-2.84-1.25-4.91-3.72-4.91a4.42,4.42,0,0,0-4,3.25,4.3,4.3,0,0,0-.26,1.58v10.77H195.1Z"/><path class="cls-14" d="M227.66,99.48c.07,4.39,2.88,6.2,6.12,6.2a11.82,11.82,0,0,0,4.94-.92l.56,2.32a14.42,14.42,0,0,1-5.94,1.11c-5.5,0-8.78-3.62-8.78-9s3.17-9.62,8.37-9.62c5.83,0,7.38,5.12,7.38,8.4a13.61,13.61,0,0,1-.11,1.51Zm9.52-2.32c0-2.06-.85-5.27-4.51-5.27-3.28,0-4.72,3-5,5.27Z"/><path class="cls-14" d="M244.33,95.54c0-2.1,0-3.91-.15-5.57H247l.11,3.5h.15a5.35,5.35,0,0,1,4.94-3.9,3.22,3.22,0,0,1,.92.11v3.06a4.49,4.49,0,0,0-1.1-.11c-2.29,0-3.91,1.73-4.36,4.16a9.71,9.71,0,0,0-.14,1.51v9.52h-3.21Z"/></svg>