<svg id="Layer_1" data-name="Layer 1" xmlns="http://www.w3.org/2000/svg" viewBox="0 0 276 194"><defs><style>.cls-1{fill:#00a1e0;}.cls-2,.cls-3{fill:#fff;}.cls-3{fill-rule:evenodd;}</style></defs><path class="cls-1" d="M123.84,50.79a29.56,29.56,0,0,1,21.41-9.2A29.91,29.91,0,0,1,171.31,57,35.85,35.85,0,0,1,186,53.91a36.73,36.73,0,0,1,0,73.46,36.13,36.13,0,0,1-7.18-.72A26.61,26.61,0,0,1,144,137.6a30.36,30.36,0,0,1-56.45-1.37,27.7,27.7,0,0,1-5.8.6A28.54,28.54,0,0,1,67.65,83.68a32.8,32.8,0,0,1,56.19-32.89Z"/><path class="cls-2" d="M78,99.2c-.11.27,0,.33.07.38a9.8,9.8,0,0,0,1,.58,10.35,10.35,0,0,0,5,1.18c3.47,0,5.62-1.84,5.62-4.81v-.06c0-2.74-2.43-3.73-4.71-4.45l-.29-.1c-1.72-.56-3.2-1-3.2-2.17v-.06c0-1,.86-1.68,2.21-1.68a10,10,0,0,1,4.4,1.13s.33.21.46-.11.64-1.73.7-1.9a.32.32,0,0,0-.17-.39,9.83,9.83,0,0,0-5-1.33h-.35c-3.17,0-5.38,1.92-5.38,4.66v.06c0,2.89,2.44,3.83,4.73,4.49l.37.11c1.66.51,3.1,1,3.1,2.13v.06c0,1.07-.93,1.87-2.44,1.87a8.14,8.14,0,0,1-4.46-1.29c-.25-.14-.39-.24-.57-.36a.28.28,0,0,0-.46.16Z"/><path class="cls-2" d="M128.73,99.2c-.1.27,0,.33.08.38a8.75,8.75,0,0,0,1,.58,10.32,10.32,0,0,0,5,1.18c3.47,0,5.62-1.84,5.62-4.81v-.06c0-2.74-2.43-3.73-4.71-4.45l-.3-.1c-1.71-.56-3.2-1-3.2-2.17v-.06c0-1,.87-1.68,2.21-1.68a10,10,0,0,1,4.41,1.13s.33.21.45-.11l.71-1.9a.33.33,0,0,0-.17-.39,9.83,9.83,0,0,0-5-1.33h-.35c-3.17,0-5.38,1.92-5.38,4.66v.06c0,2.89,2.44,3.83,4.73,4.49l.36.11c1.67.51,3.11,1,3.11,2.13v.06c0,1.07-.94,1.87-2.44,1.87a8.17,8.17,0,0,1-4.47-1.29c-.24-.14-.38-.24-.57-.36a.29.29,0,0,0-.45.16Z"/><path class="cls-2" d="M166.25,90.28a6.85,6.85,0,0,0-1.32-2.51,6.25,6.25,0,0,0-2.22-1.69,8.06,8.06,0,0,0-6.2,0,6.34,6.34,0,0,0-2.22,1.69A6.83,6.83,0,0,0,153,90.28a11.43,11.43,0,0,0,0,6.21A7,7,0,0,0,154.29,99a6.29,6.29,0,0,0,2.22,1.67,8.18,8.18,0,0,0,6.2,0A6.2,6.2,0,0,0,164.93,99a7,7,0,0,0,1.32-2.52,11.43,11.43,0,0,0,0-6.21m-2.89,3.11a7.12,7.12,0,0,1-.93,3.93,3.12,3.12,0,0,1-2.82,1.37,3.08,3.08,0,0,1-2.8-1.37,7.21,7.21,0,0,1-.91-3.93,7.11,7.11,0,0,1,.91-3.92,3.08,3.08,0,0,1,2.8-1.36,3.11,3.11,0,0,1,2.82,1.36,7,7,0,0,1,.93,3.92"/><path class="cls-3" d="M190,98.24a.27.27,0,0,0-.37-.17,6.39,6.39,0,0,1-1.35.38,9.67,9.67,0,0,1-1.58.12,4.43,4.43,0,0,1-3.31-1.24,5.52,5.52,0,0,1-1.24-4,6.12,6.12,0,0,1,1.11-3.81,3.78,3.78,0,0,1,3.21-1.41,9.6,9.6,0,0,1,3.05.44s.23.1.34-.2c.25-.7.44-1.2.71-2a.26.26,0,0,0-.18-.34,11.74,11.74,0,0,0-1.93-.48,13.85,13.85,0,0,0-2.17-.15,7.9,7.9,0,0,0-3.22.62,6.58,6.58,0,0,0-2.33,1.69,7.26,7.26,0,0,0-1.41,2.51,10.08,10.08,0,0,0-.47,3.11,8.36,8.36,0,0,0,1.92,5.76,7.37,7.37,0,0,0,5.72,2.15,11.75,11.75,0,0,0,4.09-.73.27.27,0,0,0,.12-.35Z"/><path class="cls-3" d="M204.79,89.73a6.06,6.06,0,0,0-1.25-2.29A5.84,5.84,0,0,0,201.68,86a7.16,7.16,0,0,0-2.8-.56,7.69,7.69,0,0,0-3.23.62,6.62,6.62,0,0,0-2.26,1.72,7.11,7.11,0,0,0-1.32,2.55,11.44,11.44,0,0,0,0,6.25,6.49,6.49,0,0,0,1.42,2.48,6.39,6.39,0,0,0,2.46,1.63,9.93,9.93,0,0,0,3.55.58,10.2,10.2,0,0,0,4.93-1c.11-.06.22-.17.09-.47l-.64-1.79a.28.28,0,0,0-.37-.17,9.39,9.39,0,0,1-4,.72A4,4,0,0,1,195,94.2h9.79a.28.28,0,0,0,.28-.25A10.25,10.25,0,0,0,204.79,89.73Zm-9.73,2a5.67,5.67,0,0,1,.79-2.31,3.11,3.11,0,0,1,2.8-1.42,3,3,0,0,1,2.74,1.42,4.87,4.87,0,0,1,.65,2.31Z"/><path class="cls-3" d="M126.39,89.73a6.06,6.06,0,0,0-1.25-2.29A5.73,5.73,0,0,0,123.28,86a7.16,7.16,0,0,0-2.8-.56,7.69,7.69,0,0,0-3.23.62A6.72,6.72,0,0,0,115,87.8a7.11,7.11,0,0,0-1.32,2.55,11.44,11.44,0,0,0,0,6.25,6.49,6.49,0,0,0,1.42,2.48,6.39,6.39,0,0,0,2.46,1.63,9.94,9.94,0,0,0,3.56.58,10.27,10.27,0,0,0,4.93-1c.1-.06.21-.17.08-.47l-.64-1.79a.28.28,0,0,0-.37-.17,9.39,9.39,0,0,1-4,.72,4,4,0,0,1-4.49-4.4h9.79a.29.29,0,0,0,.29-.25A10.56,10.56,0,0,0,126.39,89.73Zm-9.73,2a5.67,5.67,0,0,1,.79-2.31,3.11,3.11,0,0,1,2.8-1.42A3,3,0,0,1,123,89.47a4.87,4.87,0,0,1,.65,2.31Z"/><path class="cls-2" d="M99.39,91.31c-.39,0-.91,0-1.52,0a9,9,0,0,0-2.41.31,6.21,6.21,0,0,0-2,.94A4.81,4.81,0,0,0,92,94.14a4.64,4.64,0,0,0-.52,2.25,5.11,5.11,0,0,0,.45,2.24,4,4,0,0,0,1.27,1.53,5.28,5.28,0,0,0,2,.86,11.45,11.45,0,0,0,2.59.27,18.31,18.31,0,0,0,3-.25c1-.16,2.14-.4,2.47-.48l.68-.17a.31.31,0,0,0,.23-.32V91.12a5.51,5.51,0,0,0-1.55-4.33,6.72,6.72,0,0,0-4.5-1.35,16.36,16.36,0,0,0-2.62.24,9.49,9.49,0,0,0-3,1.11.31.31,0,0,0-.09.39L93,89a.26.26,0,0,0,.33.16l.16-.08a9.88,9.88,0,0,1,4.26-1,4,4,0,0,1,2.42.63c.54.42.81,1,.81,2.34v.41C100.17,91.38,99.39,91.31,99.39,91.31ZM95.5,98.19a2.08,2.08,0,0,1-.57-.58,2.39,2.39,0,0,1-.29-1.27,2.18,2.18,0,0,1,.87-1.9,4.46,4.46,0,0,1,2.84-.71A19.77,19.77,0,0,1,101,94v4.45h0a19.11,19.11,0,0,1-2.64.35A4.39,4.39,0,0,1,95.5,98.19Z"/><path class="cls-3" d="M178.35,86.27a.28.28,0,0,0-.15-.36,8.79,8.79,0,0,0-1.64-.28A5,5,0,0,0,174,86a4.46,4.46,0,0,0-1.66,1.22V86.07a.28.28,0,0,0-.28-.3h-2.51a.28.28,0,0,0-.28.3v14.6a.3.3,0,0,0,.3.3h2.57a.31.31,0,0,0,.3-.3V93.38a8.76,8.76,0,0,1,.32-2.57,3.54,3.54,0,0,1,.86-1.44,3,3,0,0,1,1.21-.73,4.7,4.7,0,0,1,1.31-.19,5.31,5.31,0,0,1,1.08.14c.19,0,.29-.1.35-.27C177.78,87.87,178.26,86.53,178.35,86.27Z"/><path class="cls-3" d="M154.21,79.5a7.69,7.69,0,0,0-1-.23,7.43,7.43,0,0,0-1.33-.1,5.64,5.64,0,0,0-4.15,1.48,8.15,8.15,0,0,0-2,4.44l-.12.67h-2.22a.33.33,0,0,0-.33.28l-.37,2c0,.19.06.31.32.31h2.16l-2.19,12.25a15,15,0,0,1-.59,2.42,4.86,4.86,0,0,1-.68,1.39,1.83,1.83,0,0,1-.9.69,3.66,3.66,0,0,1-1.15.17,4.15,4.15,0,0,1-.78-.09,2.2,2.2,0,0,1-.53-.17.26.26,0,0,0-.35.16c-.09.2-.66,1.79-.73,2a.3.3,0,0,0,.15.39,7.58,7.58,0,0,0,.89.26,5.87,5.87,0,0,0,1.44.13,7,7,0,0,0,2.4-.37,4.54,4.54,0,0,0,1.81-1.26,6.44,6.44,0,0,0,1.27-2.19,18.49,18.49,0,0,0,.86-3.29l2.21-12.48h3.22a.33.33,0,0,0,.33-.28l.37-2c0-.19-.06-.31-.32-.31h-3.13a12.38,12.38,0,0,1,.51-2.21,3,3,0,0,1,.69-1,2.09,2.09,0,0,1,.82-.51,3.41,3.41,0,0,1,1-.15,4.5,4.5,0,0,1,.8.08,3.6,3.6,0,0,1,.5.13c.32.09.37,0,.43-.15l.75-2.06A.26.26,0,0,0,154.21,79.5Z"/><path class="cls-3" d="M110.48,100.67a.29.29,0,0,1-.28.3h-2.6a.29.29,0,0,1-.28-.3V79.78a.28.28,0,0,1,.28-.3h2.6a.28.28,0,0,1,.28.3Z"/></svg>