<svg id="Layer_1" data-name="Layer 1" xmlns="http://www.w3.org/2000/svg" xmlns:xlink="http://www.w3.org/1999/xlink" viewBox="0 0 276 194"><defs><style>.cls-1{fill:#fff;}.cls-2{fill:none;}.cls-3{font-size:26.09px;fill:#002050;font-family:SegoeUI-Bold, Segoe UI;font-weight:700;}.cls-4{clip-path:url(#clip-path);}.cls-5{mask:url(#mask);}.cls-6{fill:url(#linear-gradient);}.cls-7{fill-opacity:0.24;}.cls-8{fill-opacity:0.32;}.cls-9{fill:url(#linear-gradient-2);}.cls-10,.cls-11{isolation:isolate;opacity:0.5;}.cls-10{fill:url(#linear-gradient-3);}.cls-11{fill:#b0adff;}</style><clipPath id="clip-path"><rect id="SVGID" class="cls-2" x="14.04" y="57.4" width="79.2" height="79.2"/></clipPath><mask id="mask" x="23.94" y="56.57" width="57.75" height="82.5" maskUnits="userSpaceOnUse"><g id="mask0"><path class="cls-1" d="M81.69,83a8.26,8.26,0,0,0-5.47-7.77L28.35,58.15a3.3,3.3,0,0,0-4.41,3.11v26a3.31,3.31,0,0,0,2.19,3.11L47.58,98A3.3,3.3,0,0,0,52,94.91V80a1.65,1.65,0,0,1,2.23-1.55l5.63,2.12a8.25,8.25,0,0,1,5.34,7.72v6.5L41,103.63a3.32,3.32,0,0,0-2.17,3.1v26a3.3,3.3,0,0,0,4.43,3.1l33.05-12.08A8.24,8.24,0,0,0,81.69,116Z"/></g></mask><linearGradient id="linear-gradient" x1="42.94" y1="-366.08" x2="58.29" y2="-406.27" gradientTransform="matrix(1, 0, 0, -1, 0, -308.55)" gradientUnits="userSpaceOnUse"><stop offset="0" stop-color="#0b53ce"/><stop offset="1" stop-color="#7252aa"/></linearGradient><linearGradient id="linear-gradient-2" x1="60.24" y1="-443.08" x2="60.24" y2="-395.17" gradientTransform="matrix(1, 0, 0, -1, 0, -308.55)" gradientUnits="userSpaceOnUse"><stop offset="0" stop-color="#2266e3"/><stop offset="1" stop-color="#ae7fe2"/></linearGradient><linearGradient id="linear-gradient-3" x1="81.69" y1="-418.75" x2="65.26" y2="-418.75" gradientTransform="matrix(1, 0, 0, -1, 0, -308.55)" gradientUnits="userSpaceOnUse"><stop offset="0" stop-color="#94b9ff"/><stop offset="0.29" stop-color="#94b9ff" stop-opacity="0.52"/><stop offset="1" stop-color="#538fff" stop-opacity="0"/></linearGradient></defs><text class="cls-3" transform="translate(91.33 91.91)">Microsoft <tspan x="0" y="31.31">Dynamics 365</tspan></text><g class="cls-4"><g class="cls-5"><path class="cls-6" d="M23.94,56.57,81.69,77.2v28.32a3.31,3.31,0,0,1-4.41,3.11l-12.09-4.32v-16a8.25,8.25,0,0,0-5.35-7.72l-5.62-2.11A1.65,1.65,0,0,0,52,80V99.59l-28-10Z"/><path class="cls-7" d="M81.69,83.3h0a8.25,8.25,0,0,1-5.42,7.76l-37.48,13.7v33l42.9-15.68Z"/><path class="cls-8" d="M81.69,84.62h0a8.25,8.25,0,0,1-5.42,7.76l-37.48,13.7v33l42.9-15.68Z"/><path class="cls-9" d="M81.69,83h0a8.25,8.25,0,0,1-5.42,7.76l-37.48,13.7v33l42.9-15.68Z"/><path class="cls-10" d="M81.69,83h0a8.25,8.25,0,0,1-5.42,7.76l-37.48,13.7v33l42.9-15.68Z"/><path class="cls-11" d="M65.19,94.79,52,99.62V119a1.65,1.65,0,0,0,2.23,1.55l5.63-2.12a8.24,8.24,0,0,0,5.34-7.72Z"/></g></g></svg>