<svg id="Layer_1" data-name="Layer 1" xmlns="http://www.w3.org/2000/svg" xmlns:xlink="http://www.w3.org/1999/xlink" viewBox="0 0 276 194"><defs><style>.cls-1,.cls-2{isolation:isolate;}.cls-2{font-size:42.78px;fill:#00bcf0;font-family:SegoeUI-Semibold, Segoe UI;font-weight:600;}.cls-3{fill:url(#linear-gradient);}.cls-4{fill:#0078d4;}.cls-5{fill:url(#linear-gradient-2);}.cls-6{fill:url(#linear-gradient-3);}</style><linearGradient id="linear-gradient" x1="-2023.68" y1="-609.67" x2="-2037.35" y2="-650.06" gradientTransform="matrix(1.56, 0, 0, -1.56, 3196.94, -892.25)" gradientUnits="userSpaceOnUse"><stop offset="0" stop-color="#114a8b"/><stop offset="1" stop-color="#0669bc"/></linearGradient><linearGradient id="linear-gradient-2" x1="-2016.13" y1="-630.12" x2="-2019.29" y2="-631.2" gradientTransform="matrix(1.56, 0, 0, -1.56, 3196.94, -892.25)" gradientUnits="userSpaceOnUse"><stop offset="0" stop-opacity="0.3"/><stop offset="0.07" stop-opacity="0.2"/><stop offset="0.32" stop-opacity="0.1"/><stop offset="0.62" stop-opacity="0.05"/><stop offset="1" stop-opacity="0"/></linearGradient><linearGradient id="linear-gradient-3" x1="-2022.23" y1="-611.11" x2="-2007.22" y2="-651.09" gradientTransform="matrix(1.56, 0, 0, -1.56, 3196.94, -892.25)" gradientUnits="userSpaceOnUse"><stop offset="0" stop-color="#3ccbf4"/><stop offset="1" stop-color="#2892df"/></linearGradient></defs><g class="cls-1"><text class="cls-2" transform="translate(91.77 86)">Microsoft </text><text class="cls-2" transform="translate(91.77 126.11)">Azure</text></g><path class="cls-3" d="M30.88,58.74H51.47L30.12,122A3.29,3.29,0,0,1,27,124.23H11A3.27,3.27,0,0,1,7.73,121h0a3.72,3.72,0,0,1,.17-1L27.79,61A3.28,3.28,0,0,1,30.88,58.74Z"/><path class="cls-4" d="M60.81,101.18H28.18a1.54,1.54,0,0,0-1.07,2.65l21,19.52a3.35,3.35,0,0,0,2.25.9H68.87Z"/><path class="cls-5" d="M30.88,58.74A3.25,3.25,0,0,0,27.79,61L7.93,119.86a3.27,3.27,0,0,0,2,4.18h0a3.52,3.52,0,0,0,1.11.21H27.44a3.54,3.54,0,0,0,2.69-2.3l4-11.68,14.15,13.2a3.36,3.36,0,0,0,2.1.78h18.4L60.68,101.1H37.15l14.4-42.36Z"/><path class="cls-6" d="M57.18,61A3.26,3.26,0,0,0,54,58.74H31.15A3.28,3.28,0,0,1,34.24,61l19.9,58.94a3.28,3.28,0,0,1-2.07,4.15,2.87,2.87,0,0,1-1,.19H74A3.29,3.29,0,0,0,77.25,121h0a3.39,3.39,0,0,0-.17-1Z"/></svg>