<svg id="Layer_1" data-name="Layer 1" xmlns="http://www.w3.org/2000/svg" viewBox="0 0 276 194"><defs><style>.cls-1{fill:#b52e31;}.cls-2{fill:#e23237;}.cls-3{fill:#fff;}</style></defs><path class="cls-1" d="M87.75,113v-30h3.86L110,107.11V82.93h3.67v30h-3.86L91.4,88.54V113H87.75Zm55.78-1.19a22.18,22.18,0,0,1-7.82,1.38c-10.87,0-16.3-5.19-16.3-15.64,0-9.86,5.24-14.82,15.75-14.82a27.89,27.89,0,0,1,8.39,1.24v3.34a21.85,21.85,0,0,0-8-1.48c-8.2,0-12.3,3.91-12.3,11.63,0,8.35,4,12.5,12.11,12.5a21.4,21.4,0,0,0,4.29-.53V99.32h3.86v12.44Zm6.2-10.39V82.92h3.86v18.45q0,8.66,8.65,8.65c5.72,0,8.66-2.88,8.66-8.65V82.92h3.86v18.45c0,7.86-4.15,11.82-12.5,11.82s-12.49-4-12.49-11.82Zm35.76-18.44v26.92h15.75V113H181.65V82.93h3.84Zm21.31,30h-4.05l14.91-34,14.93,34h-4.3l-3.86-9.44h-9.92l1.05-3.14h7.58l-5.62-13.59L206.79,113Zm29.94,0v-30h12.82c5.72,0,8.59,2.39,8.59,7.2,0,3.91-2.82,6.82-8.39,8.66L260.05,113H255l-9.54-13.5V97c5.72-.9,8.66-3.09,8.66-6.62,0-2.77-1.55-4.15-4.77-4.15h-8.58V113h-4Z"/><path class="cls-2" d="M16,74.93,46.7,64,78.26,74.74,73.15,115.4,46.7,130l-26-14.43Z"/><path class="cls-1" d="M78.26,74.73,46.7,64V130L73.16,115.4l5.1-40.67Z"/><path class="cls-3" d="M46.75,71.68l-19.17,42.6,7.15-.14,3.86-9.63H55.71l4.21,9.73,6.82.14-20-42.72Zm0,13.69,6.49,13.54H41.12l5.67-13.54Z"/></svg>